<svg t="1724749910324" class="icon" viewBox="0 0 1024 1024" version="1.1" xmlns="http://www.w3.org/2000/svg" p-id="16729" width="20px" height="20px"><path d="M512 512m-448 0a448 448 0 1 0 896 0 448 448 0 1 0-896 0Z" fill="#10AEFF" p-id="16730"></path><path d="M544 480V320c0-17.7-14.4-32-32-32s-32 14.4-32 32v159.9H320c-17.7 0-32 14.4-32 32s14.4 32 32 32h160v159.9c0 17.7 14.4 32 32 32 8.8 0 16.8-3.5 22.6-9.3s9.4-13.8 9.3-22.6l0.1-160h160c8.8 0 16.8-3.5 22.6-9.3 5.8-5.8 9.4-13.8 9.3-22.6 0-17.7-14.4-32-32-32H544z" fill="#FFFFFF" p-id="16731"></path></svg>