<?xml version="1.0" standalone="no"?><!DOCTYPE svg PUBLIC "-//W3C//DTD SVG 1.1//EN" "http://www.w3.org/Graphics/SVG/1.1/DTD/svg11.dtd"><svg t="1730786731538" class="icon" viewBox="0 0 1024 1024" version="1.1" xmlns="http://www.w3.org/2000/svg" p-id="17544" xmlns:xlink="http://www.w3.org/1999/xlink" width="200" height="200"><path d="M255 784h385c51 0 99.5-20.5 135.5-56.5s56.5-84.5 56.5-135.5-20.5-99.5-56.5-135.5-84.5-56.5-135.5-56.5H225.5V336h414.5c68 0 132.5 27 181 75 48 48 75 113 75 181s-27 132.5-75 181c-48 48-113 75-181 75H255v-64z" fill="#ff8aa9" p-id="17545"></path><path d="M255 784h385c51 0 99.5-20.5 135.5-56.5s56.5-84.5 56.5-135.5-20.5-99.5-56.5-135.5-84.5-56.5-135.5-56.5H225.5v-33.5h406.5c61.5 0 120 25.5 163.5 67.5s68 98.5 68 158-24.5 116-68 158-102 66-163.5 66H254.5v-32h0.5z" fill="#ff8aa9" p-id="17546"></path><path d="M297.5 536L139.5 377.5l-11.5-11 11.5-11.5 158-158.5z" fill="#ff8aa9" p-id="17547"></path><path d="M297.5 536L139.5 377.5l-11.5-11h169.5z" fill="#ff8aa9" p-id="17548"></path></svg>