<?xml version="1.0" standalone="no"?><!DOCTYPE svg PUBLIC "-//W3C//DTD SVG 1.1//EN" "http://www.w3.org/Graphics/SVG/1.1/DTD/svg11.dtd"><svg t="1729765306003" class="icon" viewBox="0 0 1024 1024" version="1.1" xmlns="http://www.w3.org/2000/svg" p-id="16959" xmlns:xlink="http://www.w3.org/1999/xlink" width="200" height="200"><path d="M697.173333 85.333333H327.253333C182.613333 85.333333 85.333333 186.88 85.333333 337.92v348.586667C85.333333 837.12 182.613333 938.666667 327.253333 938.666667h369.92c144.64 0 241.493333-101.546667 241.493334-252.16V337.92C938.666667 186.88 841.813333 85.333333 697.173333 85.333333z" fill="#200E32" opacity=".4" p-id="16960"></path><path d="M640.682667 587.52l-75.946667-75.861333 75.904-75.861334a37.290667 37.290667 0 0 0 0-52.778666 37.205333 37.205333 0 0 0-52.778667 0l-75.946666 75.818666-75.861334-75.946666a37.418667 37.418667 0 0 0-52.821333 0 37.418667 37.418667 0 0 0 0 52.821333l75.946667 75.946667-75.776 75.733333a37.290667 37.290667 0 1 0 52.778666 52.821333l75.776-75.776 75.946667 75.946667a37.376 37.376 0 0 0 52.778667-52.821333z" fill="#200E32" p-id="16961"></path></svg>