<svg t="1725957660463" class="icon" viewBox="0 0 1024 1024" version="1.1" xmlns="http://www.w3.org/2000/svg" p-id="13389" width="200" height="200"><path d="M85.333333 384h256v256H85.333333z m597.333334 298.666667h256v256H682.666667z" fill="#7CB342" p-id="13390"></path><path d="M384 682.666667h256v256H384zM682.666667 85.333333h256v256H682.666667z" fill="#2196F3" p-id="13391"></path><path d="M85.333333 85.333333h256v256H85.333333z m298.666667 298.666667h256v256H384z" fill="#FFC107" p-id="13392"></path><path d="M85.333333 682.666667h256v256H85.333333zM384 85.333333h256v256H384z m298.666667 298.666667h256v256H682.666667z" fill="#1565C0" p-id="13393"></path><path d="M149.333333 746.666667h128v128H149.333333z" fill="#FFC107" p-id="13394"></path><path d="M122.837333 810.624l90.517334-90.517333 90.496 90.496L213.333333 901.12zM746.666667 448h128v128h-128z" fill="#FFC107" p-id="13395"></path><path d="M720.149333 512L810.666667 421.504 901.141333 512 810.666667 602.496zM448 149.333333h128v128h-128z" fill="#FFC107" p-id="13396"></path><path d="M421.482667 213.312l90.496-90.517333 90.496 90.496L512 303.786667z" fill="#FFC107" p-id="13397"></path><path d="M182.101333 447.957333c0-17.685333 13.973333-31.957333 31.232-31.957333s31.232 14.272 31.232 31.957333C244.565333 465.706667 213.333333 512 213.333333 512s-31.232-46.293333-31.232-64.042667M244.565333 576c0 17.728-13.973333 32-31.232 32s-31.232-14.272-31.232-32S213.333333 512 213.333333 512s31.232 46.272 31.232 64" fill="#FFFFFF" p-id="13398"></path><path d="M143.616 507.690667a32.448 32.448 0 0 1-11.434667-43.712 30.72 30.72 0 0 1 42.666667-11.669334C189.802667 461.141333 213.333333 512 213.333333 512s-54.762667 4.501333-69.717333-4.309333m139.413333 8.576c14.954667 8.853333 20.053333 28.394667 11.456 43.712a30.762667 30.762667 0 0 1-42.666666 11.712C236.864 562.88 213.333333 512 213.333333 512s54.762667-4.565333 69.696 4.266667" fill="#FFFFFF" p-id="13399"></path><path d="M283.029333 507.690667a32.426667 32.426667 0 0 0 11.456-43.712 30.72 30.72 0 0 0-42.666666-11.669334C236.864 461.141333 213.333333 512 213.333333 512s54.762667 4.501333 69.696-4.309333m-139.413333 8.576a32.469333 32.469333 0 0 0-11.434667 43.712c8.597333 15.36 27.712 20.565333 42.666667 11.712C189.802667 562.88 213.333333 512 213.333333 512s-54.762667-4.565333-69.717333 4.266667m634.645333 229.184c0-17.685333 13.973333-31.957333 31.232-31.957334s31.232 14.272 31.232 31.957334c0 17.749333-31.232 64.042667-31.232 64.042666s-31.232-46.293333-31.232-64.042666m62.464 128.042666c0 17.728-13.973333 32-31.232 32s-31.232-14.272-31.232-32 31.232-64 31.232-64 31.232 46.272 31.232 64" fill="#FFFFFF" p-id="13400"></path><path d="M739.797333 805.184a32.426667 32.426667 0 0 1-11.434666-43.712 30.762667 30.762667 0 0 1 42.688-11.669333c14.912 8.832 38.464 59.690667 38.464 59.690666s-54.784 4.501333-69.717334-4.309333m139.413334 8.597333a32.426667 32.426667 0 0 1 11.434666 43.712c-8.597333 15.36-27.733333 20.565333-42.688 11.712-14.933333-8.810667-38.464-59.690667-38.464-59.690666s54.784-4.586667 69.717334 4.266666" fill="#FFFFFF" p-id="13401"></path><path d="M880.384 806.357333a32.426667 32.426667 0 0 0 11.434667-43.712 30.762667 30.762667 0 0 0-42.688-11.669333C834.197333 759.808 810.666667 810.666667 810.666667 810.666667s54.762667 4.501333 69.717333-4.309334m-140.586667 7.424a32.426667 32.426667 0 0 0-11.434666 43.712c8.597333 15.36 27.733333 20.565333 42.688 11.712 14.912-8.810667 38.464-59.690667 38.464-59.690666s-54.784-4.586667-69.717334 4.266666" fill="#FFFFFF" p-id="13402"></path><path d="M245.333333 513.173333a32 32 0 0 1-64 0 32 32 0 1 1 64 0m597.333334 298.666667a32 32 0 0 1-64 0 32 32 0 1 1 64 0" fill="#FFC107" p-id="13403"></path><path d="M170.666667 810.666667a42.666667 42.666667 0 1 0 85.354666-0.021334A42.666667 42.666667 0 0 0 170.666667 810.666667m597.333333-298.666667a42.666667 42.666667 0 1 0 85.354667-0.021333A42.666667 42.666667 0 0 0 768 512M469.333333 213.333333a42.666667 42.666667 0 1 0 85.354667-0.021333A42.666667 42.666667 0 0 0 469.333333 213.333333" fill="#FFF8E1" p-id="13404"></path><path d="M554.666667 768a42.666667 42.666667 0 1 0 0 85.333333 42.666667 42.666667 0 1 0 0-85.333333z" fill="#E3F2FD" p-id="13405"></path><path d="M490.666667 789.333333a42.666667 42.666667 0 1 0 0 85.333334 42.666667 42.666667 0 1 0 0-85.333334z m42.666666 106.666667c-17.685333 0 35.669333-64 53.333334-64a32 32 0 1 1 0 64H533.333333z" fill="#E3F2FD" p-id="13406"></path><path d="M405.333333 864a32 32 0 0 1 32-32c53.333333 0 71.018667 64 53.333334 64h-53.333334a32 32 0 0 1-32-32z" fill="#E3F2FD" p-id="13407"></path><path d="M576 896h-128v-42.666667l128-21.333333zM853.333333 170.666667a42.666667 42.666667 0 1 0 0 85.333333 42.666667 42.666667 0 1 0 0-85.333333z" fill="#E3F2FD" p-id="13408"></path><path d="M789.333333 192a42.666667 42.666667 0 1 0 0 85.333333 42.666667 42.666667 0 1 0 0-85.333333z m42.666667 106.666667c-17.685333 0 35.669333-64 53.333333-64a32 32 0 1 1 0 64H832z" fill="#E3F2FD" p-id="13409"></path><path d="M704 266.666667a32 32 0 0 1 32-32c53.333333 0 71.018667 64 53.333333 64h-53.333333a32 32 0 0 1-32-32z" fill="#E3F2FD" p-id="13410"></path><path d="M874.666667 298.666667h-128v-42.666667l128-21.333333z" fill="#E3F2FD" p-id="13411"></path><path d="M426.688 736a32 32 0 1 0 63.957333 0.042667 32 32 0 0 0-63.957333-0.042667m298.666667-597.333333a32 32 0 1 0 63.957333 0.042666 32 32 0 0 0-63.957333-0.042666" fill="#FFF59D" p-id="13412"></path><path d="M234.688 160a32 32 0 1 0 63.957333 0.042667 32 32 0 0 0-63.957333-0.042667m298.666667 298.666667a32 32 0 1 0 63.957333 0.042666 32 32 0 0 0-63.957333-0.042666" fill="#FFF9C4" p-id="13413"></path><path d="M184.234667 182.336L106.666667 298.666667h155.157333z m298.666666 298.666667L405.333333 597.333333h155.136z" fill="#D85700" p-id="13414"></path><path d="M261.824 221.12L203.626667 298.666667H320z m298.645333 298.666667L502.293333 597.333333H618.666667z" fill="#EF7E03" p-id="13415"></path></svg>