<?xml version="1.0" standalone="no"?><!DOCTYPE svg PUBLIC "-//W3C//DTD SVG 1.1//EN" "http://www.w3.org/Graphics/SVG/1.1/DTD/svg11.dtd"><svg t="1730813186740" class="icon" viewBox="0 0 1152 1024" version="1.1" xmlns="http://www.w3.org/2000/svg" p-id="94790" xmlns:xlink="http://www.w3.org/1999/xlink" width="247.5" height="220"><path d="M10.154248 287.086057c28.7982-127.928004 148.214737-224.049997 269.935129-213.106681 87.162552-3.83976 164.085745 53.43666 218.098369 122.936317a3994.630336 3994.630336 0 0 1-2.495844 168.30948c25.150428-15.35904 49.980876-31.294044 75.067308-46.781076-15.999 121.208424-48.380976 239.025061-73.467408 358.057622l18.302856-2.23986a467.810762 467.810762 0 0 1 47.165052-31.934004c10.495344 121.208424-15.487032 240.432973-17.91888 361.065433-29.694144-15.935004-55.9965-38.013624-80.826948-61.628148-83.83476-80.506968-171.509281-156.022249-255.984001-235.761265-62.460096-59.132304-133.047685-113.528904-172.341229-194.995813-31.67802-68.219736-47.35704-149.558653-25.534404-223.922005zM672.000883 187.508281c62.204112-82.042872 167.925505-123.320292 263.727517-99.577777 134.903569 26.814324 236.273233 179.380789 212.850696 326.379602-14.07912 94.970064-72.827448 173.173177-138.423348 234.033373-110.457096 100.089744-225.585901 193.715893-338.154865 290.989813-35.773764 29.75814-70.587588 61.11618-110.265109 84.602712 11.775264-125.75214 70.3956-241.136929 84.218737-367.337041-23.102556 5.951628-46.269108 12.095244-69.115681 18.494844 37.11768-114.360852 90.87432-221.234173 134.455597-332.779202-28.862196 7.167552-57.020436 16.95894-85.690645 25.27842 18.814824-59.004312 25.5984-121.976376 46.397101-180.084744m189.172176 32.189988c44.349228 17.27892 95.482032 26.622336 127.416037 67.963752 36.541716 40.893444 37.885632 99.961752 47.869008 152.374477 17.91888-1.087932 35.773764-2.55984 53.500656-4.223736 0.511968-43.51728 3.967752-89.466408-14.207112-129.783889-33.149928-88.762452-120.95244-145.014937-208.242985-142.135116-2.367852 18.622836-4.47972 37.11768-6.335604 55.804512z" fill="#DB4100" p-id="94791"></path><path d="M895.986883 59.260296c1.535904-19.83876 3.327792-39.421536 5.311669-59.132304 73.019436-3.007812 146.550841 56.508468 174.261108 150.518593 15.231048 42.685332 12.351228 91.386288 11.903256 137.399412a1105.210924 1105.210924 0 0 1-44.7972 4.47972c-8.31948-55.484532-9.471408-118.07262-40.061496-161.333916-26.750328-43.773264-69.499656-53.75664-106.617337-71.931505z" fill="#FFFFFF" p-id="94792"></path></svg>