<?xml version="1.0" standalone="no"?><!DOCTYPE svg PUBLIC "-//W3C//DTD SVG 1.1//EN" "http://www.w3.org/Graphics/SVG/1.1/DTD/svg11.dtd"><svg t="1729845450444" class="icon" viewBox="0 0 1024 1024" version="1.1" xmlns="http://www.w3.org/2000/svg" p-id="5278" xmlns:xlink="http://www.w3.org/1999/xlink" width="200" height="200"><path d="M277.333333 938.666667a42.666667 42.666667 0 0 1-42.666666-42.666667V128a42.666667 42.666667 0 0 1 42.666666-42.666667h404.138667L853.333333 288.512V896a42.666667 42.666667 0 0 1-42.666666 42.666667H277.333333z" fill="#896CFA" fill-opacity=".2" p-id="5279"></path><path d="M681.472 85.333333L853.333333 288.512V896a42.666667 42.666667 0 0 1-42.666666 42.666667H277.333333a42.666667 42.666667 0 0 1-42.666666-42.666667V128a42.666667 42.666667 0 0 1 42.666666-42.666667h404.138667z m-9.877333 21.333334H277.333333c-7.104 0-12.437333 1.770667-16 5.333333-3.562667 3.562667-5.333333 8.896-5.333333 16v768c0 7.104 1.770667 12.437333 5.333333 16 3.562667 3.562667 8.896 5.333333 16 5.333333h533.333334c7.104 0 12.437333-1.770667 16-5.333333 3.562667-3.562667 5.333333-8.896 5.333333-16V296.32L671.573333 106.666667z" fill="#896CFA" p-id="5280"></path><path d="M416.96 349.482667l40.896-24.256a5.717333 5.717333 0 0 0 3.242667-5.226667c0-2.133333-1.152-4.010667-2.837334-5.013333l-39.957333-23.722667a5.525333 5.525333 0 0 0-4.224-1.962667 5.696 5.696 0 0 0-5.610667 5.76v0.32l0.021334 48.512-0.021334 0.618667c0 3.2 2.517333 5.76 5.610667 5.76 1.066667 0 2.026667-0.298667 2.88-0.789333z" fill="#896CFA" p-id="5281"></path><path d="M492.544 234.666667c17.429333 0 31.658667 14.528 31.68 32.256v15.701333l7.637333-4.352a15.061333 15.061333 0 0 1 7.68-2.112c8.32 0 15.125333 6.869333 15.125334 15.36l-0.042667 1.152v54.890667l0.042667 1.173333c0 8.448-6.784 15.36-15.146667 15.36a15.061333 15.061333 0 0 1-7.402667-1.92l-7.893333-4.650667v15.552c0 17.749333-14.229333 32.256-31.658667 32.256h-119.530666C355.626667 405.333333 341.333333 390.826667 341.333333 373.077333l0.042667-1.344-0.021333-0.128-0.042667-0.469333v-104.213333c0-17.749333 14.272-32.256 31.68-32.256z m0.96 15.488h-121.493333a15.424 15.424 0 0 0-15.253334 15.530666v63.146667l-0.021333 4.330667-0.021333 35.52 0.085333 0.682666v5.184c0 8.533333 6.848 15.530667 15.232 15.530667h121.472a15.424 15.424 0 0 0 15.253333-15.530667v-108.864c0-8.533333-6.869333-15.530667-15.253333-15.530666z m-144.384 111.424a7.722667 7.722667 0 0 0-7.68 7.786666l-0.021333 1.344-0.042667 0.896 0.106667 1.088c0.725333 3.562667 3.84 6.229333 7.573333 6.229334 4.224 0 7.68-3.498667 7.68-7.786667l-0.021333-2.453333-0.085334-0.874667a7.701333 7.701333 0 0 0-7.509333-6.229333z m186.773333-67.370667a3.477333 3.477333 0 0 0-1.92 0.554667l-9.749333 5.632v39.210666l9.898667 5.76a3.562667 3.562667 0 0 0 5.354666-2.944v-44.672a3.562667 3.562667 0 0 0-3.584-3.541333z" fill="#896CFA" p-id="5282"></path><path d="M661.333333 618.666667a21.333333 21.333333 0 0 1 21.333334 21.333333v213.333333a21.333333 21.333333 0 0 1-21.333334 21.333334H149.333333a21.333333 21.333333 0 0 1-21.333333-21.333334V640a21.333333 21.333333 0 0 1 21.333333-21.333333h512z" fill="#896CFA" p-id="5283"></path><path d="M294.186667 711.893333c-6.208-6.186667-16.213333-9.813333-27.306667-9.813333-13.866667 0-23.893333 4.266667-33.28 14.08-7.04-9.6-17.066667-14.08-29.44-14.08-10.24 0-20.501333 4.053333-27.733333 11.541333v-10.24H149.333333v111.146667h27.712v-67.2c0-15.146667 9.834667-20.266667 18.581334-20.266667s18.346667 5.12 18.346666 20.266667v67.2h27.754667v-67.882667c0-14.485333 10.005333-19.584 18.56-19.584 8.746667 0 18.325333 5.12 18.325333 20.266667v67.2h27.733334v-71.04c0-12.16-3.2-22.613333-12.16-31.573333zM422.186667 729.386667c0-25.6-19.413333-43.52-46.293334-43.52-25.6 0-45.866667 16.213333-46.506666 43.328h27.712c0.682667-11.562667 8.32-18.389333 18.794666-18.389334 10.026667 0 18.56 6.613333 18.56 19.434667 0 10.666667-5.76 19.2-19.178666 19.2h-4.053334v24.128h4.053334c13.653333 0 21.312 8.277333 21.312 20.906667 0 13.632-8.533333 21.077333-20.48 21.077333-10.88 0-20.266667-6.144-20.693334-19.797333h-27.733333c0.426667 31.786667 23.68 44.8 48.426667 44.8 26.026667 0 48.213333-15.146667 48.213333-45.461334 0-18.346667-8.746667-28.8-19.626667-34.56 10.026667-5.333333 17.493333-14.72 17.493334-31.146666zM513.728 703.36v67.2c0 15.146667-9.834667 20.266667-18.581333 20.266667s-18.346667-5.12-18.346667-20.266667v-67.2H449.066667v71.04c0 12.16 2.346667 22.613333 11.349333 31.573333 6.144 6.186667 15.104 9.834667 26.197333 9.834667 10.261333 0 20.522667-3.84 27.754667-11.562667v10.261334h27.093333v-111.146667h-27.712zM616.746667 661.333333c25.386667 0 46.506667 16.405333 46.506666 43.328 0 16.213333-9.365333 26.197333-17.066666 31.573334 8.32 5.525333 19.2 15.573333 19.2 34.112 0 29.44-21.76 45.461333-48.64 45.461333-26.88 0-48.64-16.042667-48.64-45.461333 0-18.56 10.88-28.586667 19.2-34.133334-7.68-5.333333-17.066667-15.36-17.066667-31.552 0-26.922667 21.098667-43.328 46.506667-43.328z m1.514666 85.333334a20.906667 20.906667 0 0 0-20.928 21.141333c0 11.733333 9.216 20.906667 20.928 20.906667 11.733333 0 20.906667-9.173333 20.906667-20.906667S629.973333 746.666667 618.24 746.666667z m-1.493333-60.373334c-10.88 0-18.816 8.32-18.816 19.2 0 11.093333 7.914667 19.221333 18.794667 19.221334s18.773333-8.106667 18.773333-19.2c0-10.88-7.893333-19.242667-18.773333-19.242667z" fill="#FFFFFF" p-id="5284"></path><path d="M704 298.666667a42.666667 42.666667 0 0 1-42.666667-42.666667V85.333333h20.138667L853.333333 288.512V298.666667h-149.333333z" fill="#896CFA" fill-opacity=".2" p-id="5285"></path><path d="M681.472 85.333333L853.333333 288.512V298.666667h-149.333333a42.666667 42.666667 0 0 1-42.666667-42.666667V85.333333h20.138667z m1.216 34.474667V256c0 7.104 1.770667 12.437333 5.333333 16 3.541333 3.541333 8.874667 5.333333 16 5.333333h111.893334l-133.226667-157.525333z" fill="#896CFA" p-id="5286"></path></svg>