<?xml version="1.0" standalone="no"?><!DOCTYPE svg PUBLIC "-//W3C//DTD SVG 1.1//EN" "http://www.w3.org/Graphics/SVG/1.1/DTD/svg11.dtd"><svg t="1730783358254" class="icon" viewBox="0 0 1024 1024" version="1.1" xmlns="http://www.w3.org/2000/svg" p-id="10450" xmlns:xlink="http://www.w3.org/1999/xlink" width="200" height="200"><path d="M128 0h768c70.7 0 128 57.3 128 128v768c0 70.7-57.3 128-128 128H128C57.3 1024 0 966.7 0 896V128C0 57.3 57.3 0 128 0z" fill="#FFC107" p-id="10451"></path><path d="M663.1 213.3c-65 0-120.6 46.4-151.1 78.4-30.5-32-86-78.4-151-78.4-112.1 0-190.3 78.2-190.3 190.2 0 123.4 97.2 203.2 191.1 280.3 44.4 36.5 90.3 74.1 125.5 115.9 5.9 7 14.6 11 23.7 11h1.8c9.2 0 17.8-4 23.7-11 35.3-41.8 81.2-79.5 125.6-115.9 94-77.1 191.2-156.9 191.2-280.3 0-112-78.2-190.2-190.2-190.2z" fill="#FFFFFF" p-id="10452"></path></svg>