<?xml version="1.0" standalone="no"?><!DOCTYPE svg PUBLIC "-//W3C//DTD SVG 1.1//EN" "http://www.w3.org/Graphics/SVG/1.1/DTD/svg11.dtd"><svg t="1730797176291" class="icon" viewBox="0 0 1048 1024" version="1.1" xmlns="http://www.w3.org/2000/svg" p-id="64157" xmlns:xlink="http://www.w3.org/1999/xlink" width="225.15625" height="220"><path d="M850.362545 36.37884a3089.697703 3089.697703 0 0 1 16.398752 165.433981l134.709883-9.711404a3231.660408 3231.660408 0 0 0-17.11174-172.649924l-133.996895 16.927347zM69.434494 259.278111l440.533077-31.752605a2732.920368 2732.920368 0 0 0-14.505642-146.314398L57.268603 136.566114a2298.681265 2298.681265 0 0 1 12.165891 122.711997zM760.271853 513.831645l248.107947 7.44541c1.729204-57.748027 1.913597-115.528836 0.553181-173.285058l-248.148923 5.867819c1.257975 53.318479 1.089972 106.661545-0.512205 159.971829zM74.339368 493.241008l441.479632 13.251765c1.466955-48.938103 1.622665-97.908988 0.463033-146.851188L74.732741 370.078271a2294.026347 2294.026347 0 0 1-0.393373 123.162737zM705.506907 794.020008l278.85663 35.227403a3231.238351 3231.238351 0 0 0 17.111741-172.649924l-280.344074-20.209556a2946.972837 2946.972837 0 0 1-15.624297 157.632077zM57.268603 712.128691l180.906667 22.852533a2479.165874 2479.165874 0 0 0 13.132933-132.452084l-181.873709-13.108348c-2.954398 40.976391-7.01106 81.895414-12.165891 122.707899z" fill="#B0A8A8" p-id="64158"></path><path d="M733.006162 241.883633A1885.758079 1885.758079 0 0 0 683.035454 21.233966c-38.144922 84.394974-82.018343 163.127011-130.530292 235.704393a1705.777479 1705.777479 0 0 1 17.181401 452.760433c-27.155054-28.675278-64.345226-46.204978-105.882994-49.093814-94.819368-4.892581-175.231437 56.94489-189.78625 137.066026-14.038511 80.194894 39.800368 166.757519 130.436046 195.014838 90.324258 28.269612 189.085554-31.072397 207.52493-134.697591 1.889012-10.551421 2.770004-21.045474 2.819176-31.371524a1765.607107 1765.607107 0 0 0 15.341561-434.857847 1679.011701 1679.011701 0 0 0 102.86713-149.875247z" fill="#FF7676" p-id="64159"></path></svg>