<?xml version="1.0" standalone="no"?><!DOCTYPE svg PUBLIC "-//W3C//DTD SVG 1.1//EN" "http://www.w3.org/Graphics/SVG/1.1/DTD/svg11.dtd"><svg t="1730440816639" class="icon" viewBox="0 0 1024 1024" version="1.1" xmlns="http://www.w3.org/2000/svg" p-id="6990" xmlns:xlink="http://www.w3.org/1999/xlink" width="200" height="200"><path d="M981.272 776.96L959.99 52.73c-0.344-11.532-9.812-20.718-21.344-20.718H85.354c-11.562 0-21 9.188-21.344 20.718L42.668 778.054a21.426 21.426 0 0 0 6.032 15.468 21.272 21.272 0 0 0 15.312 6.468H960.024a21.3 21.3 0 0 0 21.312-21.312c-0.002-0.592-0.002-1.154-0.064-1.718z" fill="#EC5564" p-id="6991"></path><path d="M959.99 96.01H64.01c-5.656 0-11.092 2.25-15.092 6.25s-6.25 9.438-6.25 15.094V842.68c0 11.782 9.562 21.312 21.342 21.312h895.98c11.782 0 21.344-9.532 21.344-21.312V117.354c0-11.782-9.562-21.344-21.344-21.344z" fill="#FFCE54" p-id="6992"></path><path d="M996.616 166.508c-4-4.156-9.532-6.5-15.282-6.5H42.668a21.35 21.35 0 0 0-15.312 6.5 21.266 21.266 0 0 0-6 15.468l21.312 725.326c0.344 11.532 9.812 20.686 21.342 20.686h895.98a21.312 21.312 0 0 0 21.312-20.686l21.344-725.326a21.3 21.3 0 0 0-6.03-15.468z" fill="#48CFAD" p-id="6993"></path><path d="M1018.176 230.726a21.348 21.348 0 0 0-15.53-6.718H21.356c-5.874 0-11.5 2.438-15.53 6.718S-0.298 240.758 0.044 246.6L42.7 971.926c0.688 11.282 10 20.062 21.312 20.062h895.98c11.282 0 20.624-8.782 21.282-20.062L1023.958 246.6a21.352 21.352 0 0 0-5.782-15.874z" fill="#AC92EB" p-id="6994"></path><path d="M5.826 230.726A21.358 21.358 0 0 0 0.044 246.6L42.7 971.926c0.688 11.282 10 20.062 21.312 20.062h127.966l1.218-1.25-45.03-765.45-0.968-1.282h-125.84a21.348 21.348 0 0 0-15.532 6.72z" fill="#967ADC" p-id="6995"></path><path d="M512 469.844h42.656v308.834H512z" fill="#CCD1D9" p-id="6996"></path><path d="M713.528 482.282l-170.652-85.34a21.33 21.33 0 0 0-20.748 0.938 21.26 21.26 0 0 0-10.126 18.124v170.684c0 7.376 3.814 14.25 10.126 18.156a21.444 21.444 0 0 0 11.216 3.156c3.25 0 6.5-0.718 9.532-2.25l170.652-85.31a21.384 21.384 0 0 0 11.812-19.094 21.34 21.34 0 0 0-11.812-19.064zM469.344 693.34c-47.062 0-85.342 38.28-85.342 85.34 0 47.062 38.28 85.312 85.342 85.312 47.032 0 85.312-38.25 85.312-85.312 0-47.06-38.28-85.34-85.312-85.34z" fill="#E6E9ED" p-id="6997"></path></svg>