<?xml version="1.0" standalone="no"?><!DOCTYPE svg PUBLIC "-//W3C//DTD SVG 1.1//EN" "http://www.w3.org/Graphics/SVG/1.1/DTD/svg11.dtd"><svg t="1729854919706" class="icon" viewBox="0 0 1024 1024" version="1.1" xmlns="http://www.w3.org/2000/svg" p-id="6992" xmlns:xlink="http://www.w3.org/1999/xlink" width="200" height="200"><path d="M749.714286 822.857143a72.978286 72.978286 0 0 0 58.185143-28.8l29.074285 22.198857A109.750857 109.750857 0 0 1 646.235429 786.285714H621.714286a18.285714 18.285714 0 0 1-12.928-31.213714L658.285714 705.572571l49.499429 49.499429A18.285714 18.285714 0 0 1 694.857143 786.285714h-8.502857A73.106286 73.106286 0 0 0 749.714286 822.857143z m0-146.285714a72.96 72.96 0 0 0-58.660572 29.44l-29.293714-21.888A109.750857 109.750857 0 0 1 853.193143 713.142857H877.714286a18.285714 18.285714 0 0 1 12.928 31.213714L841.142857 793.856l-49.499428-49.499429A18.285714 18.285714 0 0 1 804.571429 713.142857h8.502857A73.106286 73.106286 0 0 0 749.714286 676.571429zM420.571429 877.714286a54.857143 54.857143 0 0 1-54.857143-54.857143v-36.571429H182.857143a54.857143 54.857143 0 0 1-54.857143-54.857143V128a54.857143 54.857143 0 0 1 54.857143-54.857143h402.285714a54.857143 54.857143 0 0 1 54.857143 54.857143v36.571429h182.857143a54.857143 54.857143 0 0 1 54.857143 54.857142v375.113143c44.672 36.900571 73.142857 92.708571 73.142857 155.172572 0 111.085714-90.057143 201.142857-201.142857 201.142857a200.740571 200.740571 0 0 1-155.172572-73.142857H420.571429z m420.571428-658.285715a18.285714 18.285714 0 0 0-18.285714-18.285714H420.571429a18.285714 18.285714 0 0 0-18.285715 18.285714v603.428572a18.285714 18.285714 0 0 0 18.285715 18.285714h149.942857c-14.025143-27.428571-21.942857-58.514286-21.942857-91.428571h-73.142858a18.285714 18.285714 0 0 1 0-36.571429h76.452572a199.716571 199.716571 0 0 1 18.614857-54.857143H475.428571a18.285714 18.285714 0 0 1 0-36.571428h119.113143a201.837714 201.837714 0 0 1 71.259429-54.857143H475.428571a18.285714 18.285714 0 0 1 0-36.571429h292.571429a18.285714 18.285714 0 0 1 17.993143 21.540572c19.510857 3.565714 38.034286 9.929143 55.149714 18.669714V219.428571zM603.428571 164.571429V128a18.285714 18.285714 0 0 0-18.285714-18.285714H182.857143a18.285714 18.285714 0 0 0-18.285714 18.285714v603.428571a18.285714 18.285714 0 0 0 18.285714 18.285715h182.857143V219.428571a54.857143 54.857143 0 0 1 54.857143-54.857142h182.857142zM237.714286 164.571429h73.142857a18.285714 18.285714 0 0 1 0 36.571428h-73.142857a18.285714 18.285714 0 0 1 0-36.571428z m0 91.428571h73.142857a18.285714 18.285714 0 0 1 0 36.571429h-73.142857a18.285714 18.285714 0 0 1 0-36.571429z m0 91.428571h73.142857a18.285714 18.285714 0 0 1 0 36.571429h-73.142857a18.285714 18.285714 0 0 1 0-36.571429z m0 91.428572h73.142857a18.285714 18.285714 0 0 1 0 36.571428h-73.142857a18.285714 18.285714 0 0 1 0-36.571428z m0 91.428571h73.142857a18.285714 18.285714 0 0 1 0 36.571429h-73.142857a18.285714 18.285714 0 0 1 0-36.571429z m0 91.428572h73.142857a18.285714 18.285714 0 0 1 0 36.571428h-73.142857a18.285714 18.285714 0 0 1 0-36.571428z m237.714285-365.714286h292.571429a18.285714 18.285714 0 0 1 0 36.571429H475.428571a18.285714 18.285714 0 0 1 0-36.571429z m0 91.428571h292.571429a18.285714 18.285714 0 0 1 0 36.571429H475.428571a18.285714 18.285714 0 0 1 0-36.571429z m0 91.428572h292.571429a18.285714 18.285714 0 0 1 0 36.571428H475.428571a18.285714 18.285714 0 0 1 0-36.571428z m274.285715 475.428571a164.571429 164.571429 0 1 0 0-329.142857 164.571429 164.571429 0 0 0 0 329.142857z" fill="#005DBA" p-id="6993"></path><path d="M749.714286 822.857143a72.978286 72.978286 0 0 0 58.185143-28.8l29.074285 22.198857A109.750857 109.750857 0 0 1 646.235429 786.285714H621.714286a18.285714 18.285714 0 0 1-12.928-31.213714L658.285714 705.572571l49.499429 49.499429A18.285714 18.285714 0 0 1 694.857143 786.285714h-8.502857A73.106286 73.106286 0 0 0 749.714286 822.857143z m0-146.285714a72.96 72.96 0 0 0-58.660572 29.44l-29.293714-21.888A109.750857 109.750857 0 0 1 853.193143 713.142857H877.714286a18.285714 18.285714 0 0 1 12.928 31.213714L841.142857 793.856l-49.499428-49.499429A18.285714 18.285714 0 0 1 804.571429 713.142857h8.502857A73.106286 73.106286 0 0 0 749.714286 676.571429z m91.428571-457.142858a18.285714 18.285714 0 0 0-18.285714-18.285714H420.571429a18.285714 18.285714 0 0 0-18.285715 18.285714v603.428572a18.285714 18.285714 0 0 0 18.285715 18.285714h149.942857c-14.025143-27.428571-21.942857-58.514286-21.942857-91.428571h-73.142858a18.285714 18.285714 0 0 1 0-36.571429h76.452572a199.716571 199.716571 0 0 1 18.614857-54.857143H475.428571a18.285714 18.285714 0 0 1 0-36.571428h119.113143a201.837714 201.837714 0 0 1 71.259429-54.857143H475.428571a18.285714 18.285714 0 0 1 0-36.571429h292.571429a18.285714 18.285714 0 0 1 17.993143 21.540572c19.510857 3.565714 38.034286 9.929143 55.149714 18.669714V219.428571zM603.428571 164.571429V128a18.285714 18.285714 0 0 0-18.285714-18.285714H182.857143a18.285714 18.285714 0 0 0-18.285714 18.285714v603.428571a18.285714 18.285714 0 0 0 18.285714 18.285715h182.857143V219.428571a54.857143 54.857143 0 0 1 54.857143-54.857142h182.857142zM237.714286 164.571429h73.142857a18.285714 18.285714 0 0 1 0 36.571428h-73.142857a18.285714 18.285714 0 0 1 0-36.571428z m0 91.428571h73.142857a18.285714 18.285714 0 0 1 0 36.571429h-73.142857a18.285714 18.285714 0 0 1 0-36.571429z m0 91.428571h73.142857a18.285714 18.285714 0 0 1 0 36.571429h-73.142857a18.285714 18.285714 0 0 1 0-36.571429z m0 91.428572h73.142857a18.285714 18.285714 0 0 1 0 36.571428h-73.142857a18.285714 18.285714 0 0 1 0-36.571428z m0 91.428571h73.142857a18.285714 18.285714 0 0 1 0 36.571429h-73.142857a18.285714 18.285714 0 0 1 0-36.571429z m0 91.428572h73.142857a18.285714 18.285714 0 0 1 0 36.571428h-73.142857a18.285714 18.285714 0 0 1 0-36.571428z m237.714285-365.714286h292.571429a18.285714 18.285714 0 0 1 0 36.571429H475.428571a18.285714 18.285714 0 0 1 0-36.571429z m0 91.428571h292.571429a18.285714 18.285714 0 0 1 0 36.571429H475.428571a18.285714 18.285714 0 0 1 0-36.571429z m0 91.428572h292.571429a18.285714 18.285714 0 0 1 0 36.571428H475.428571a18.285714 18.285714 0 0 1 0-36.571428z m274.285715 475.428571a164.571429 164.571429 0 1 0 0-329.142857 164.571429 164.571429 0 0 0 0 329.142857z" fill="#FFFFFF" p-id="6994"></path></svg>