<?xml version="1.0" standalone="no"?><!DOCTYPE svg PUBLIC "-//W3C//DTD SVG 1.1//EN" "http://www.w3.org/Graphics/SVG/1.1/DTD/svg11.dtd"><svg t="1729855207516" class="icon" viewBox="0 0 1024 1024" version="1.1" xmlns="http://www.w3.org/2000/svg" p-id="7140" xmlns:xlink="http://www.w3.org/1999/xlink" width="200" height="200"><path d="M713.98912 503.42272c-126.19648 0-228.4992 102.29248-228.4992 228.50048 0 126.19776 102.30272 228.50048 228.4992 228.50048 126.19776 0 228.50048-102.30272 228.50048-228.50048-0.00128-126.208-102.30272-228.50048-228.50048-228.50048m0 342.74816c-56.5952 0-103.44448-41.18784-112.50944-95.20768H580.6976c-10.52288 0-19.04-8.52608-19.04-19.04128 0-5.26336 2.12864-10.0224 5.57824-13.46432l38.08256-38.08384a18.97856 18.97856 0 0 1 13.46432-5.57824 18.9824 18.9824 0 0 1 13.46304 5.57824l38.08384 38.08384a18.95168 18.95168 0 0 1 5.57824 13.46432c0 10.5152-8.51584 19.04128-19.04256 19.04128h-16.54912c8.47872 32.82816 38.20416 57.12512 73.67424 57.12512 9.92128 0 19.37792-1.95328 28.0704-5.4016l28.44288 28.45056c-16.68224 9.52192-35.93856 15.0336-56.51456 15.0336m146.75456-100.77696l-38.08384 38.08384a19.04256 19.04256 0 0 1-13.46432 5.56928c-5.25184 0-10.01088-2.1376-13.46176-5.57824l-38.08384-38.0736a18.98368 18.98368 0 0 1-5.57824-13.47072c0-10.51776 8.51584-19.04256 19.04256-19.04256h16.54912c-8.48-32.82944-38.20544-57.12384-73.67552-57.12384-9.92 0-19.37664 1.96096-28.06912 5.40032l-28.44288-28.44032c16.67968-9.52064 35.93472-15.04512 56.51072-15.04512 56.59648 0 103.44576 41.18912 112.51072 95.20896h20.7808c10.52416 0 19.04128 8.5248 19.04128 19.04256a18.9696 18.9696 0 0 1-5.57568 13.46944M656.864 471.62368V103.54688c0-21.03168-17.05088-38.08384-38.08256-38.08384H142.7392c-21.03168 0-38.08384 17.05216-38.08384 38.08384v666.45632c0 21.03296 17.05216 38.08512 38.08384 38.08512h315.85152c-7.19744-24.14592-11.18464-49.68704-11.18464-76.1664 0-127.6032 89.70368-234.12608 209.45792-260.29824" fill="#FFFFFF" p-id="7141"></path><path d="M190.34368 189.23392c21.03168 0 38.08256-17.05216 38.08256-38.08256 0-21.03168-17.05216-38.08256-38.08256-38.08256-21.03168 0-38.08256 17.05088-38.08256 38.08256 0 21.03168 17.05088 38.08256 38.08256 38.08256m0 304.66688c-21.03168 0-38.08256 17.05216-38.08256 38.08384 0 21.0304 17.05088 38.08256 38.08256 38.08256 21.03168 0 38.08256-17.05216 38.08256-38.08256s-17.05088-38.08384-38.08256-38.08384m0 180.896c-21.03168 0-38.08256 17.05216-38.08256 38.08384s17.05088 38.08384 38.08256 38.08384c21.03168 0 38.08256-17.05216 38.08256-38.08384s-17.05088-38.08384-38.08256-38.08384" fill="#85AB70" p-id="7142"></path><path d="M190.34368 303.48416c-21.03168 0-38.08256 17.05216-38.08256 38.08384 0 21.0304 17.05088 38.08256 38.08256 38.08256 21.03168 0 38.08256-17.05216 38.08256-38.08256 0-21.03168-17.05088-38.08384-38.08256-38.08384" fill="#F1806F" p-id="7143"></path><path d="M590.21696 170.19136c10.52544 0 19.04256-8.5248 19.04256-19.04 0-10.51648-8.51712-19.04256-19.04256-19.04256s-19.04 8.52608-19.04 19.04256c0 10.5152 8.51584 19.04 19.04 19.04m-57.12384-38.08256c-10.52544 0-19.04256 8.52608-19.04256 19.04256 0 10.5152 8.51712 19.04 19.04256 19.04s19.04128-8.5248 19.04128-19.04c0-10.51648-8.51584-19.04256-19.04128-19.04256m57.12384 190.41664c-10.52544 0-19.04 8.52608-19.04 19.04256 0 10.5152 8.51456 19.04 19.04 19.04s19.04256-8.52608 19.04256-19.04c0-10.51648-8.51712-19.04256-19.04256-19.04256m-57.12384 0c-10.52544 0-19.04256 8.52608-19.04256 19.04256 0 10.5152 8.51712 19.04 19.04256 19.04s19.04128-8.52608 19.04128-19.04c0-10.51648-8.51584-19.04256-19.04128-19.04256" fill="#86AEDD" p-id="7144"></path><path d="M276.03072 236.8384h19.04128v-19.04128h-19.04128v19.04128z m19.04128 19.04128h19.04128V236.8384h-19.04128v19.04128z m38.08384 0h-19.04128v19.04128h19.04128v-19.04128z m-57.12512 19.04256h19.04128v-19.04128h-19.04128v19.04128z m19.04128 19.04128h19.04128v-19.04128h-19.04128v19.04128z m38.08384 0h-19.04128v19.04128h19.04128v-19.04128z m-57.12512 19.04128h19.04128v-19.04128h-19.04128v19.04128z m19.04128 19.04256h19.04128v-19.04128h-19.04128v19.04128z m38.08384-114.25024h-19.04128v19.04128h19.04128v-19.04128z m-57.12512 133.29152h19.04128v-19.04128h-19.04128v19.04128z m19.04128 19.04128h19.04128v-19.04128h-19.04128v19.04128z m38.08384 0h-19.04128v19.04128h19.04128v-19.04128z m-57.12512 19.04256h19.04128v-19.04128h-19.04128v19.04128z m19.04128 19.04128h19.04128v-19.04128h-19.04128v19.04128z m38.08384 0h-19.04128v19.04128h19.04128v-19.04128z m-57.12512 19.04128h19.04128v-19.04128h-19.04128v19.04128z m19.04128 19.04128h19.04128v-19.04128h-19.04128v19.04128z m38.08384-114.24896h-19.04128v19.04128h19.04128v-19.04128z m-57.12512 133.29024h19.04128V446.2976h-19.04128v19.04z m19.04128 19.04256h19.04128v-19.04256h-19.04128v19.04256z m38.08384 0h-19.04128v19.04256h19.04128v-19.04256z m-57.12512 19.04256h19.04128v-19.04256h-19.04128v19.04256z m19.04128 19.04128h19.04128v-19.04128h-19.04128v19.04128z m38.08384 0h-19.04128v19.04h19.04128v-19.04z m-57.12512 19.04h19.04128v-19.04h-19.04128v19.04z m19.04128 19.04256h19.04128V541.504h-19.04128v19.04256z m38.08384-114.25024h-19.04128v19.04h19.04128v-19.04z m-57.12512 133.2928h19.04128v-19.04256h-19.04128v19.04256z m19.04128 19.04128h19.04128v-19.04128h-19.04128v19.04128z m38.08384 0h-19.04128v19.04128h19.04128V598.6304z m-57.12512 19.04128h19.04128V598.6304h-19.04128v19.04128z m57.12512-57.12512h-19.04128v19.04256h19.04128v-19.04256zM276.03072 122.58816h19.04128V103.54688h-19.04128v19.04128z m38.08384 0h-19.04128v19.04128h19.04128V122.58816z m19.04128 19.04128h-19.04128v19.04128h19.04128v-19.04128z m-57.12512 19.04256h19.04128v-19.04128h-19.04128v19.04128z m38.08384 0h-19.04128v19.04128h19.04128v-19.04128z m19.04128 19.04128h-19.04128v19.04128h19.04128v-19.04128z m-57.12512 19.04128h19.04128v-19.04128h-19.04128v19.04128z m38.08384 0h-19.04128v19.04128h19.04128v-19.04128z m19.04128-95.20768h-19.04128v19.04128h19.04128V103.54688z m0-38.08384h-19.04128V84.5056h19.04128V65.46304zM276.03072 84.5056h19.04128V65.46304h-19.04128V84.5056z m38.08384 0h-19.04128v19.04128h19.04128V84.5056z m-19.04256 552.20864h19.04128v-19.04256h-19.04128v19.04256z m38.08384 0h-19.04128v19.04256h19.04128v-19.04256z m-57.12512 19.04256h19.04128v-19.04256h-19.04128v19.04256z m19.04128 19.04h19.04128V655.7568h-19.04128v19.04z m38.08384 0h-19.04128v19.04128h19.04128v-19.04128z m-57.12512 19.04128h19.04128v-19.04128h-19.04128v19.04128z m19.04128 19.04256h19.04128v-19.04256h-19.04128v19.04256z m-19.04128 19.04128h19.04128v-19.04256h-19.04128v19.04256z m19.04128 19.04128h19.04128v-19.04128h-19.04128v19.04128z m38.08384-38.08256h-19.04128v19.04256h19.04128v-19.04256z m-57.12512 57.12256h19.04128V750.9632h-19.04128v19.04z m19.04128 19.04256h19.04128v-19.04256h-19.04128v19.04256z m38.08384 0h-19.04128v19.04256h19.04128v-19.04256z m-57.12512 19.04256h19.04128v-19.04256h-19.04128v19.04256z m57.12512-57.12512h-19.04128v19.04h19.04128V750.9632z" fill="" p-id="7145"></path><path d="M656.864 427.25504H104.65536v19.04128h552.20864v-19.04128z m0-190.41664H104.65536v19.04128h552.20864V236.8384zM104.65536 636.71424h360.32256c2.47296-6.46144 5.15968-12.82176 8.11648-19.04256H104.65536v19.04256z m609.33376-95.21024c-105.1648 0-190.41664 85.25184-190.41664 190.4192 0 105.16608 85.25184 190.41536 190.41664 190.41536 105.16608 0 190.41792-85.24928 190.41792-190.41536-0.00128-105.16864-85.25184-190.4192-190.41792-190.4192m0 361.792c-94.6496 0-171.37408-76.7232-171.37408-171.37408s76.7232-171.37664 171.37408-171.37664 171.37536 76.72576 171.37536 171.37664S808.64 903.296 713.98912 903.296" fill="" p-id="7146"></path><path d="M713.98912 808.08832c-35.47008 0-65.19552-24.28672-73.67424-57.12512h16.54912c10.52672 0 19.04256-8.52608 19.04256-19.04128 0-5.25312-2.12992-10.01472-5.57824-13.46432l-38.08384-38.08384a18.97984 18.97984 0 0 0-13.46304-5.57824 18.9824 18.9824 0 0 0-13.46432 5.57824l-38.08256 38.08384a18.97856 18.97856 0 0 0-5.57824 13.46432c0 10.5152 8.51712 19.04128 19.04 19.04128h20.78208c9.06496 54.01984 55.91552 95.20768 112.50944 95.20768 20.66048 0 39.9808-5.55904 56.69632-15.14496l-28.42112-28.4224c-8.74752 3.50464-18.26944 5.4848-28.27392 5.4848m133.29152-95.20768h-20.7808c-9.06496-54.01984-55.91552-95.20896-112.51072-95.20896-20.576 0-39.83104 5.51424-56.51072 15.04512l28.44288 28.45056c8.69248-3.45856 18.14912-5.41056 28.06912-5.41056 35.47008 0 65.19552 24.28544 73.67552 57.12384h-16.54912c-10.52672 0-19.04256 8.5248-19.04256 19.04256a18.9824 18.9824 0 0 0 5.57824 13.46304l38.08384 38.08256a18.97856 18.97856 0 0 0 13.46176 5.57824c5.25312 0 10.016-2.12864 13.46432-5.57824l38.08384-38.08256a18.97984 18.97984 0 0 0 5.57824-13.46304c-0.00256-10.51776-8.51968-19.04256-19.04384-19.04256M713.98912 465.3376c-6.40512 0-12.74624 0.3072-19.04 0.75392V103.54688c0-42.06336-34.1056-76.1664-76.16768-76.1664H142.7392c-42.06336 0-76.1664 34.10432-76.1664 76.1664v666.45632c0 42.06336 34.10432 76.16768 76.1664 76.16768h330.35648c42.78784 90.05696 134.55744 152.3328 240.89344 152.3328 147.22944 0 266.58432-119.3536 266.58432-266.58176-0.00128-147.22944-119.35488-266.58432-266.58432-266.58432M458.50624 808.08832H142.7392c-21.03168 0-38.08384-17.05216-38.08384-38.08512V103.54688c0-21.03168 17.05216-38.08384 38.08384-38.08384h476.04224c21.03168 0 38.08256 17.05216 38.08256 38.08384v367.9936c-119.76192 26.15424-209.45792 132.76288-209.45792 260.38272 0 26.47808 3.91424 52.0192 11.10016 76.16512M713.98912 960.4224c-126.19648 0-228.4992-102.30272-228.4992-228.50048 0-126.19904 102.30272-228.50048 228.4992-228.50048 126.19776 0 228.50048 102.30144 228.50048 228.50048-0.00128 126.19776-102.30272 228.50048-228.50048 228.50048" fill="" p-id="7147"></path></svg>