<?xml version="1.0" standalone="no"?><!DOCTYPE svg PUBLIC "-//W3C//DTD SVG 1.1//EN" "http://www.w3.org/Graphics/SVG/1.1/DTD/svg11.dtd"><svg t="1729861154482" class="icon" viewBox="0 0 1024 1024" version="1.1" xmlns="http://www.w3.org/2000/svg" p-id="19708" xmlns:xlink="http://www.w3.org/1999/xlink" width="200" height="200"><path d="M915.72459 286.216393v730.229509h-872.918033v-730.229509z" fill="#455A64" p-id="19709"></path><path d="M730.229508 386.098361h-671.47541c-28.537705 0-50.360656-21.822951-50.360655-50.360656v-33.573771c0-28.537705 21.822951-50.360656 50.360655-50.360655h671.47541c28.537705 0 50.360656 21.822951 50.360656 50.360655v33.573771c0 28.537705-21.822951 50.360656-50.360656 50.360656z" fill="#455A64" p-id="19710"></path><path d="M982.872131 286.216393v730.229509h-705.04918v-730.229509z" fill="#546E7A" p-id="19711"></path><path d="M965.245902 386.098361h-671.47541c-28.537705 0-50.360656-21.822951-50.360656-50.360656v-33.573771c0-28.537705 21.822951-50.360656 50.360656-50.360655h671.47541c28.537705 0 50.360656 21.822951 50.360655 50.360655v33.573771c0 28.537705-21.822951 50.360656-50.360655 50.360656z" fill="#546E7A" p-id="19712"></path><path d="M377.704918 663.081967h251.803279v352.52459h-251.803279zM629.508197 663.081967h251.803278v352.52459h-251.803278z" fill="#26C6DA" p-id="19713"></path><path d="M579.147541 814.163934v100.721312M679.868852 814.163934v100.721312" fill="#546E7A" p-id="19714"></path><path d="M842.231607 89.037639L396.338361 208.509902l-21.72223-81.080656L820.509377 7.990557z" fill="#546E7A" p-id="19715"></path><path d="M617.757377 62.111475l80.577049-21.82295 62.111476 70.504918-80.57705 21.82295zM444.852459 109.114754l82.255738-21.822951 62.111475 70.504918-80.577049 21.822951zM399.527869 208.157377h461.639344v303.842623H399.527869z" fill="#CFD8DC" p-id="19716"></path><path d="M399.527869 208.157377h461.639344v83.934426H399.527869z" fill="#546E7A" p-id="19717"></path><path d="M399.527869 208.157377m-41.967213 0a41.967213 41.967213 0 1 0 83.934426 0 41.967213 41.967213 0 1 0-83.934426 0Z" fill="#546E7A" p-id="19718"></path><path d="M607.685246 208.157377h-83.934426l-40.288525 83.934426h83.934426zM787.304918 208.157377h-83.934426l-41.967213 83.934426h83.934426z" fill="#CFD8DC" p-id="19719"></path></svg>